<svg id="emd0rSJNYFR1" xmlns="http://www.w3.org/2000/svg" xmlns:xlink="http://www.w3.org/1999/xlink" viewBox="0 0 300 300" shape-rendering="geometricPrecision" text-rendering="geometricPrecision" project-id="432c51d607634d98818c690f94ebb71c" export-id="b7afcb9594d742038011fd90f8039f3b" cached="false"><g transform="translate(.000001 0)"><path d="M60.299999,86.634195l24.937337.04v86.767681c0,0,0,36.728798-42.547601,36.191935s-38.845195-36.989179-38.845195-36.989179h24.750905c0,0-.669451,17.580408,15.51622,17.580408s16.185671-16.783164,16.185671-16.783164l.002663-86.807681Z" fill="#f00" stroke-width="0.6"/><path d="M106.659739,86.674193l81.348681-.106899-.212941,19.519535h-56.216265v30.277139h48.198618q-.10752,18.932258,0,18.932258t-48.198618,0v33.3159h56.849102v19.687131h-81.768577q-.313662-121.424953,0-121.625064Z" transform="translate(.000012 0.062706)" fill="#fd0303" stroke-width="0.6"/><path d="M196.895466,86.674195v19.412636h36.936937v102.212428h25.200895l.415046-102.212428l36.991054.106899v-19.519535h-99.543932Z" transform="translate(.000001-.044195)" fill="#f00" stroke-width="0.6"/></g></svg>
